<svg enable-background="new 0 0 500 500" viewBox="0 0 500 500" xmlns="http://www.w3.org/2000/svg" xmlns:xlink="http://www.w3.org/1999/xlink"><defs><path id="a" d="m427.77 456.09s-1.35.7-5.61.7c-3.85 0-5.62-.7-5.62-.7l-5.35-52.53-4.65-45.68h11.23l4.61 45.23z"/><clipPath id="b"><use xlink:href="#a"/></clipPath><clipPath id="c"><use xlink:href="#l"/></clipPath><clipPath id="d"><use xlink:href="#m"/></clipPath><clipPath id="e"><use xlink:href="#n"/></clipPath><clipPath id="f"><use xlink:href="#o"/></clipPath><clipPath id="g"><use xlink:href="#p"/></clipPath><clipPath id="h"><use xlink:href="#q"/></clipPath><clipPath id="i"><use xlink:href="#r"/></clipPath><clipPath id="j"><use xlink:href="#s"/></clipPath><clipPath id="k"><use xlink:href="#t"/></clipPath><path id="l" d="m344.77 357.88-2.99 29.32-7.01 68.89s-1.35.7-5.61.7c-3.85 0-5.62-.7-5.62-.7l7.57-74.35 2.43-23.86z"/><path id="m" d="m381.27 357.88v98.21s-1.35.7-5.61.7c-3.85 0-5.62-.7-5.62-.7v-98.21z"/><path id="n" d="m423.2 343.72v15.38c0 1.29-1.05 2.48-2.35 2.64-30.02 3.61-60.37 3.61-90.39 0-1.3-.16-2.35-1.35-2.35-2.64v-15.38c0-1.29 1.05-2.48 2.35-2.64 30.02-3.6 60.37-3.6 90.39 0 1.3.16 2.35 1.35 2.35 2.64z"/><path id="o" d="m414.41 352.31c-3.69 6.33-20.31 5.35-20.31 5.35l-.29 1.21-18.61 78.34 2.36 2.99-2.36 8.11c-2.46 2.64-24.15-1.39-26.47-4.66l2.11-6.44s1.17-75.53 3.04-89.57l.01-.07c.13-.93.26-1.58.39-1.91l-37.45 4.65s3.76 70.15 6.93 74.06c3.16 3.91.39 10.22.39 10.22l2.03 9.56s-9.82-.69-19.48-.98c-1.99-.06-3.97-.1-5.86-.11 0 0-.31-.72-.82-2.66-.51-1.95 1.44-5.81 1.44-5.81l-1.79-2.33s.94-6.91.94-9.07c0-2.17-24.17-80.16-21.86-85.21 7.7-16.79 47.93-27.75 65.85-31.86 5.28-1.22 8.63-1.84 8.63-1.84l57.32 3.64 1.41.09 4.88.31s1.27 37.66-2.43 43.99z"/><path id="p" d="m435.82 242.91-3.12 20.8s-17.23 7.57-20.83 13.65l-.85.12-4.05.56s-.83-.25-2.19-.64c-3.5-.99-10.54-2.86-16.3-3.57-2.19-.29-4.2-.39-5.76-.22l-11.66-18.17s18.03-2.49 30.5 1.78l5.96-.42s.07-.06.22-.19c1.78-1.45 14.34-11.43 28.08-13.7z"/><path id="q" d="m198.819 192.643h28.032v20.549h-28.032z" transform="matrix(.994 -.1092 .1092 .994 -20.8842 24.4531)"/><path id="r" d="m230.112 189.064h28.032v20.549h-28.032z" transform="matrix(.994 -.1092 .1092 .994 -20.3063 27.8486)"/><path id="s" d="m261.405 185.485h28.032v20.549h-28.032z" transform="matrix(.994 -.1092 .1092 .994 -19.729 31.2452)"/><path id="t" d="m192.326 108.995h91.057v66.748h-91.057z" transform="matrix(.994 -.1092 .1092 .994 -14.1236 26.8236)"/></defs><path d="m57.959 448.06h211.214c.856-1.363 1.718-2.717 2.594-4.051 22.721-34.586 59.096-59.243 98.829-70.809 17.799-5.181 37.082-8.265 51.384-20.059 14.716-12.135 21.475-31.496 24.402-50.344 3.544-22.823 1.628-48.404-13.863-65.535-18.192-20.118-48.67-22.37-72.371-35.558-40.79-22.696-56.604-74.39-93.712-102.709-23.432-17.882-55.092-24.814-83.405-20.894-40.189 5.564-78.005 32.5-89.357 71.962-3.15 10.951-4.411 22.826-3.44 35.411 1.817 23.55 6.882 47.403 2.104 70.533-5.267 25.493-21.854 47.017-31.764 71.088-12.338 29.968-14.037 63.605-8.761 95.581 1.409 8.551 3.382 17.129 6.146 25.384z" fill="#92e3a9"/><path d="m57.959 448.06h211.214c.856-1.363 1.718-2.717 2.594-4.051 22.721-34.586 59.096-59.243 98.829-70.809 17.799-5.181 37.082-8.265 51.384-20.059 14.716-12.135 21.475-31.496 24.402-50.344 3.544-22.823 1.628-48.404-13.863-65.535-18.192-20.118-48.67-22.37-72.371-35.558-40.79-22.696-56.604-74.39-93.712-102.709-23.432-17.882-55.092-24.814-83.405-20.894-40.189 5.564-78.005 32.5-89.357 71.962-3.15 10.951-4.411 22.826-3.44 35.411 1.817 23.55 6.882 47.403 2.104 70.533-5.267 25.493-21.854 47.017-31.764 71.088-12.338 29.968-14.037 63.605-8.761 95.581 1.409 8.551 3.382 17.129 6.146 25.384z" fill="#fff" opacity=".7"/><g stroke="#263238"><path d="m276.211 123.325v-15.669h156.817v156.817h-143.202" fill="none" stroke-linecap="round" stroke-linejoin="round" stroke-miterlimit="10"/><path d="m276.211 264.473v-133.197" fill="none" stroke-linecap="round" stroke-linejoin="round" stroke-miterlimit="10"/><path d="m283.707 164.896v-49.641h68.619v68.619h-68.619v-14.881" fill="none" stroke-linecap="round" stroke-linejoin="round" stroke-miterlimit="10"/><path d="m425.531 159.048v24.826h-68.619v-68.619h68.619v36.536" fill="none" stroke-linecap="round" stroke-linejoin="round" stroke-miterlimit="10"/><path d="m352.326 188.255v68.619h-68.619v-68.619h63.552" fill="none" stroke-linecap="round" stroke-linejoin="round" stroke-miterlimit="10"/><path d="m375.528 256.874h-18.616v-68.619h68.619v68.619h-40.205" fill="none" stroke-linecap="round" stroke-linejoin="round" stroke-miterlimit="10"/><path d="m111.299 101.507v3.91" fill="none" stroke-linecap="round" stroke-linejoin="round" stroke-miterlimit="10"/><path d="m111.497 76.21-.198 22.999" fill="none" stroke-linecap="round" stroke-linejoin="round" stroke-miterlimit="10"/><path d="m111.299 60.772.182 12.808" fill="none" stroke-linecap="round" stroke-linejoin="round" stroke-miterlimit="10"/><path d="m125.146 127.895h4.367c-7.305-27.304-29.122-27.304-36.427 0h19.4" fill="none" stroke-linecap="round" stroke-linejoin="round" stroke-miterlimit="10"/><path d="m118.618 127.895h2.826" fill="none" stroke-linecap="round" stroke-linejoin="round" stroke-miterlimit="10"/><path d="m111.299 132.937v7.319" fill="none" stroke-linecap="round" stroke-linejoin="round" stroke-miterlimit="10"/><path d="m120.031 132.937 2.334 5.143" fill="none" stroke-linecap="round" stroke-linejoin="round" stroke-miterlimit="10"/><path d="m102.398 132.937-2.373 5.143" fill="none" stroke-linecap="round" stroke-linejoin="round" stroke-miterlimit="10"/><path d="m34.385 448.44h425.923" fill="none" stroke-linecap="round" stroke-linejoin="round" stroke-miterlimit="10"/><path d="m239.786 263.828v120.532l-16.423 16.422h-86.591v-136.954z" fill="#fff" stroke-linecap="round" stroke-linejoin="round" stroke-miterlimit="10"/><path d="m136.774 263.829h103.01v11.673h-103.01z" fill="#92e3a9" stroke-linecap="round" stroke-linejoin="round" stroke-miterlimit="10"/><path d="m239.858 384.288-16.495 16.494v-16.494z" fill="#bfbfbf" stroke-linecap="round" stroke-linejoin="round" stroke-miterlimit="10"/></g><path d="m188.279 272.302 1.139 3.857s-2.902 1.952-1.139 3.363 1.763 1.411 1.763 1.411-1.187 4.127.791 5.215 8.506-.323 10.088-2.769-3.872-4.945-3.872-4.945 1.597-2.006.707-2.931c-.89-.926-4.055-.53-4.055-.53l-2.176-3.659z" fill-opacity=".7" opacity=".3"/><ellipse cx="189.418" cy="263.031" fill="#263238" rx="7.344" ry="6.883"/><path d="m196.188 268.819c0 2.756-3.031 4.99-6.771 4.99-3.739 0-6.77-2.234-6.77-4.99s3.031-4.99 6.77-4.99c3.74 0 6.771 2.234 6.771 4.99z" fill="#263238"/><path d="m193.464 267.567c1.375-1.001 1.918-2.238 1.918-2.238" fill="none" stroke="#fff" stroke-linecap="round" stroke-linejoin="round" stroke-miterlimit="10"/><path d="m183.613 265.626s1.833 3.193 5.805 3.193" fill="none" stroke="#fff" stroke-linecap="round" stroke-linejoin="round" stroke-miterlimit="10"/><path d="m142.75 292.295h91.057v55.386h-91.057z" fill="#263238" stroke="#263238" stroke-linecap="round" stroke-linejoin="round" stroke-miterlimit="10"/><path d="m176.761 310.22v23.058l25.313-11.529z" fill="#92e3a9" stroke="#263238" stroke-linecap="round" stroke-linejoin="round" stroke-miterlimit="10"/><path d="m175.611 283.776h-32.137c-.382 0-.692.31-.692.692s.31.692.692.692h32.137c.382 0 .692-.31.692-.692-.001-.383-.31-.692-.692-.692z" fill="#263238"/><path d="m232.611 366.776h-89.137c-.382 0-.692.31-.692.692s.31.692.692.692h89.137c.382 0 .692-.31.692-.692-.001-.383-.31-.692-.692-.692z" fill="#263238"/><path d="m232.611 372.776h-89.137c-.382 0-.692.31-.692.692s.31.692.692.692h89.137c.382 0 .692-.31.692-.692-.001-.383-.31-.692-.692-.692z" fill="#263238"/><path d="m232.611 378.776h-89.137c-.382 0-.692.31-.692.692s.31.692.692.692h89.137c.382 0 .692-.31.692-.692-.001-.383-.31-.692-.692-.692z" fill="#263238"/><path d="m212.611 384.776h-69.137c-.382 0-.692.31-.692.692s.31.692.692.692h69.137c.382 0 .692-.31.692-.692-.001-.383-.31-.692-.692-.692z" fill="#263238"/><path d="m232.611 360.776h-89.137c-.382 0-.692.31-.692.692s.31.692.692.692h89.137c.382 0 .692-.31.692-.692-.001-.383-.31-.692-.692-.692z" fill="#263238"/><path d="m175.611 353.776h-32.137c-.382 0-.692.31-.692.692s.31.692.692.692h32.137c.382 0 .692-.31.692-.692-.001-.383-.31-.692-.692-.692z" fill="#263238"/><path d="m142.75 343.879h91.057v3.801h-91.057z" fill="#bfbfbf" stroke="#263238" stroke-linecap="round" stroke-linejoin="round" stroke-miterlimit="10"/><path d="m142.75 343.879h49.612v3.801h-49.612z" fill="#92e3a9" stroke="#263238" stroke-linecap="round" stroke-linejoin="round" stroke-miterlimit="10"/><path d="m165.329 164.405v120.532l-16.423 16.422h-86.591v-136.954z" fill="#fff" stroke="#263238" stroke-linecap="round" stroke-linejoin="round" stroke-miterlimit="10"/><path d="m104.887 182.886h-35.792c-.425 0-.77.345-.77.77s.345.77.77.77h35.792c.425 0 .77-.345.77-.77.001-.425-.344-.77-.77-.77z" fill="#263238"/><path d="m126.239 221.949h-31.385c-.425 0-.77.345-.77.77s.345.77.77.77h31.385c.425 0 .77-.345.77-.77 0-.426-.345-.77-.77-.77z" fill="#263238"/><path d="m126.239 227.315h-31.802c-.425 0-.77.345-.77.77s.345.77.77.77h31.802c.425 0 .77-.345.77-.77s-.345-.77-.77-.77z" fill="#263238"/><path d="m126.239 232.682h-31.802c-.425 0-.77.345-.77.77s.345.77.77.77h31.802c.425 0 .77-.345.77-.77s-.345-.77-.77-.77z" fill="#263238"/><path d="m116.113 238.049h-21.676c-.425 0-.77.345-.77.77s.345.77.77.77h21.677c.425 0 .77-.345.77-.77s-.345-.77-.771-.77z" fill="#263238"/><path d="m126.239 246.77h-44.385c-.425 0-.77.345-.77.77s.345.77.77.77h44.385c.425 0 .77-.345.77-.77s-.345-.77-.77-.77z" fill="#263238"/><path d="m126.239 252.137h-57.802c-.425 0-.77.345-.77.77s.345.77.77.77h57.802c.425 0 .77-.345.77-.77s-.345-.77-.77-.77z" fill="#263238"/><path d="m126.239 257.504h-57.802c-.425 0-.77.345-.77.77s.345.77.77.77h57.802c.425 0 .77-.345.77-.77s-.345-.77-.77-.77z" fill="#263238"/><path d="m126.239 262.871h-57.802c-.425 0-.77.345-.77.77s.345.77.77.77h57.802c.425 0 .77-.345.77-.77s-.345-.77-.77-.77z" fill="#263238"/><path d="m106.239 268.238h-37.802c-.425 0-.77.345-.77.77s.345.77.77.77h37.802c.425 0 .77-.345.77-.77 0-.426-.345-.77-.77-.77z" fill="#263238"/><path d="m126.239 276.77h-44.385c-.425 0-.77.345-.77.77s.345.77.77.77h44.385c.425 0 .77-.345.77-.77s-.345-.77-.77-.77z" fill="#263238"/><path d="m126.239 282.137h-57.802c-.425 0-.77.345-.77.77s.345.77.77.77h57.802c.425 0 .77-.345.77-.77s-.345-.77-.77-.77z" fill="#263238"/><path d="m106.239 287.504h-37.802c-.425 0-.77.345-.77.77s.345.77.77.77h37.802c.425 0 .77-.345.77-.77s-.345-.77-.77-.77z" fill="#263238"/><path d="m62.317 164.406h103.01v11.673h-103.01z" fill="#92e3a9" stroke="#263238" stroke-linecap="round" stroke-linejoin="round" stroke-miterlimit="10"/><path d="m113.822 172.879 1.139 3.857s-2.902 1.952-1.139 3.363 1.763 1.411 1.763 1.411-1.187 4.127.791 5.215 8.506-.323 10.088-2.769-3.872-4.945-3.872-4.945 1.597-2.006.707-2.931c-.89-.926-4.055-.53-4.055-.53l-2.176-3.659z" fill-opacity=".7" opacity=".3"/><path d="m122.305 163.608c0 3.801-3.288 6.883-7.344 6.883s-7.344-3.082-7.344-6.883 3.288-6.883 7.344-6.883 7.344 3.082 7.344 6.883z" fill="#263238"/><ellipse cx="114.961" cy="169.396" fill="#263238" rx="6.77" ry="4.99"/><path d="m119.007 168.144c1.375-1.001 1.918-2.238 1.918-2.238" fill="none" stroke="#fff" stroke-linecap="round" stroke-linejoin="round" stroke-miterlimit="10"/><path d="m109.156 166.203s1.833 3.193 5.805 3.193" fill="none" stroke="#fff" stroke-linecap="round" stroke-linejoin="round" stroke-miterlimit="10"/><path d="m134.121 179.493v118.787" fill="none" stroke="#263238" stroke-linecap="round" stroke-linejoin="round" stroke-miterlimit="10"/><path d="m158.991 182.886h-19.385c-.425 0-.77.345-.77.77s.345.77.77.77h19.385c.426 0 .77-.345.77-.77s-.345-.77-.77-.77z" fill="#263238"/><path d="m158.991 190.886h-19.385c-.425 0-.77.345-.77.77s.345.77.77.77h19.385c.426 0 .77-.345.77-.77s-.345-.77-.77-.77z" fill="#263238"/><path d="m158.991 198.837h-19.385c-.425 0-.77.345-.77.77s.345.77.77.77h19.385c.426 0 .77-.345.77-.77 0-.426-.345-.77-.77-.77z" fill="#263238"/><path d="m158.991 206.787h-19.385c-.425 0-.77.345-.77.77s.345.77.77.77h19.385c.426 0 .77-.345.77-.77s-.345-.77-.77-.77z" fill="#263238"/><path d="m158.991 214.738h-19.385c-.425 0-.77.345-.77.77s.345.77.77.77h19.385c.426 0 .77-.345.77-.77s-.345-.77-.77-.77z" fill="#263238"/><path d="m158.991 222.689h-19.385c-.425 0-.77.345-.77.77s.345.77.77.77h19.385c.426 0 .77-.345.77-.77s-.345-.77-.77-.77z" fill="#263238"/><path d="m158.991 230.639h-19.385c-.425 0-.77.345-.77.77s.345.77.77.77h19.385c.426 0 .77-.345.77-.77s-.345-.77-.77-.77z" fill="#263238"/><path d="m158.991 238.59h-19.385c-.425 0-.77.345-.77.77s.345.77.77.77h19.385c.426 0 .77-.345.77-.77s-.345-.77-.77-.77z" fill="#263238"/><path d="m158.991 246.541h-19.385c-.425 0-.77.345-.77.77s.345.77.77.77h19.385c.426 0 .77-.345.77-.77s-.345-.77-.77-.77z" fill="#263238"/><path d="m158.991 254.492h-19.385c-.425 0-.77.345-.77.77s.345.77.77.77h19.385c.426 0 .77-.345.77-.77s-.345-.77-.77-.77z" fill="#263238"/><path d="m158.991 262.442h-19.385c-.425 0-.77.345-.77.77s.345.77.77.77h19.385c.426 0 .77-.345.77-.77s-.345-.77-.77-.77z" fill="#263238"/><path d="m158.991 270.393h-19.385c-.425 0-.77.345-.77.77s.345.77.77.77h19.385c.426 0 .77-.345.77-.77s-.345-.77-.77-.77z" fill="#263238"/><path d="m158.991 278.344h-19.385c-.425 0-.77.345-.77.77s.345.77.77.77h19.385c.426 0 .77-.345.77-.77s-.345-.77-.77-.77z" fill="#263238"/><path d="m158.991 286.295h-19.385c-.425 0-.77.345-.77.77s.345.77.77.77h19.385c.426 0 .77-.345.77-.77 0-.426-.345-.77-.77-.77z" fill="#263238"/><path d="m165.401 284.865-16.495 16.494v-16.494z" fill="#bfbfbf" stroke="#263238" stroke-linecap="round" stroke-linejoin="round" stroke-miterlimit="10"/><path d="m67.969 189.771h60.349v25.737h-60.349z" fill="#757575" stroke="#263238" stroke-linecap="round" stroke-linejoin="round" stroke-miterlimit="10"/><path d="m67.969 205.418 1.888-2.778 1.055.732 2.11-3.765 1.758 4.492 1.143-.727 2.242 4.956 2.373-5.688 1.187 1.327 3.297-8.571 2.253 6.466h1.176l1.846 3.951 1.644-3.173 1.784 4.917 4.418-9.26 2.439 5.075.792-1.51.791.778 3.493-8.827 4.946 13.692 2.649-4.588.569 2.105 2.453-4.645 1.978 3.59 1.713-2.901 2.339 4.22 3.596-8.308 1.108 1.859 1.309-3.595v20.266h-60.349z" fill="#999" stroke="#263238" stroke-linecap="round" stroke-linejoin="round" stroke-miterlimit="10"/><path d="m88.85 230.54v.08c-.04 5.38-4.43 9.74-9.83 9.74-2.14 0-4.11-.68-5.72-1.85-2.48-1.77-4.1-4.69-4.1-7.97 0-5.43 4.4-9.83 9.82-9.83 1.77 0 3.44.47 4.87 1.3 1.22.69 2.28 1.64 3.1 2.78.67.91 1.17 1.95 1.48 3.06.25.85.38 1.75.38 2.69z" fill="#fff" stroke="#263238" stroke-linecap="round" stroke-linejoin="round" stroke-miterlimit="10"/><path d="m88.85 230.54c0 5.42-4.4 9.82-9.83 9.82-2.14 0-4.11-.68-5.72-1.85l5.72-7.97 9.45-2.69c.25.85.38 1.75.38 2.69z" fill="#bfbfbf" stroke="#263238" stroke-miterlimit="10"/><path d="m88.85 230.54v.08l-9.83-.08 4.87-8.53c2.21 1.25 3.88 3.34 4.58 5.84.25.85.38 1.75.38 2.69z" fill="#999" stroke="#263238" stroke-linecap="round" stroke-linejoin="round" stroke-miterlimit="10"/><path d="m86.99 224.79v.02l-7.97 5.73v-9.83c1.77 0 3.44.47 4.87 1.3 1.22.69 2.28 1.64 3.1 2.78z" fill="#757575" stroke="#263238" stroke-linecap="round" stroke-linejoin="round" stroke-miterlimit="10"/><use fill="#999" xlink:href="#a"/><path clip-path="url(#b)" d="m422.38 403.11c-3.79.31-7.52.46-11.19.45l-4.65-45.68h11.23z" fill-opacity=".7" opacity=".3"/><use fill="none" stroke="#263238" stroke-linecap="round" stroke-linejoin="round" stroke-miterlimit="10" xlink:href="#a"/><use fill="#999" xlink:href="#l"/><path clip-path="url(#c)" d="m333.54 357.88h11.23l-2.99 29.32c-3.98-1.88-7.56-3.74-10.67-5.46z" fill-opacity=".7" opacity=".3"/><use fill="none" stroke="#263238" stroke-linecap="round" stroke-linejoin="round" stroke-miterlimit="10" xlink:href="#l"/><use fill="#999" xlink:href="#m"/><path clip-path="url(#d)" d="m381.27 357.88v16.35c-4.01-.31-7.91-.07-11.23.37v-16.72z" fill-opacity=".7" opacity=".3"/><use fill="none" stroke="#263238" stroke-linecap="round" stroke-linejoin="round" stroke-miterlimit="10" xlink:href="#m"/><use fill="#bfbfbf" xlink:href="#n"/><path clip-path="url(#e)" d="m423.2 343.72v8.64c-9.01 3.56-23.28 3.15-38.25 2.67-24.51-.77-26.13-5.55-35.55-4.38-4.25.53-13.27.4-21.29-.53v-6.4c0-1.29 1.05-2.48 2.35-2.64 30.02-3.6 60.37-3.6 90.39 0 1.3.16 2.35 1.35 2.35 2.64z" fill-opacity=".7" opacity=".3"/><path d="m420.853 361.743c-30.024 3.603-60.371 3.603-90.395 0-1.295-.163-2.345-1.35-2.345-2.642 0-5.126 0-10.252 0-15.378 0-1.292 1.049-2.48 2.345-2.642 30.024-3.603 60.371-3.603 90.395 0 1.295.162 2.345 1.35 2.345 2.642v15.378c0 1.292-1.05 2.48-2.345 2.642z" fill="none" stroke="#263238" stroke-linecap="round" stroke-linejoin="round" stroke-miterlimit="10"/><path d="m361.945 213.874-31.091 32.33c-7.942-7.781-29.398-32.646-29.398-32.646l-7.555 10.939s11.604 19.405 18.461 30.691 15.297 16.079 15.561 16.583 34.022-24.051 34.022-24.051z" fill="#fff" stroke="#263238" stroke-linecap="round" stroke-linejoin="round" stroke-miterlimit="10"/><path d="m296.766 224.496s-5.668 1.214-8.198-1.804c-2.529-3.018-13.147-10.286-13.147-10.286l5.913-19.782 16.484 12.982 3.891 9.791" fill="#fff" stroke="#263238" stroke-linecap="round" stroke-linejoin="round" stroke-miterlimit="10"/><path d="m361.945 210.56c-5.539-.132-23.736 24.482-23.736 24.482l-1.978 1.597s5.311 18.834 11.592 24.623l5.884-2.859h3.477z" fill="#263238"/><path d="m440.788 255.187s5.577 30.33 4.371 35.077-2.788 11.868-10.041 11.868-9.112-25.055-9.112-25.055l-3.943-11.868z" fill="#fff" stroke="#263238" stroke-linecap="round" stroke-linejoin="round" stroke-miterlimit="10"/><path d="m322.107 434.593s5.538 14.769 3.692 24.527c0 0-19.253 1.055-21.89 1.319s-13.736 3.692-15.967 3.165-10.934-1.582-10.934-1.582-1.319-6.857 1.846-8.176 21.473-3.165 25.429-17.67z" fill="#263238"/><path d="m309.29 447.253s-2.084-3.428-7.095-3.428" fill="none" stroke="#fff" stroke-linecap="round" stroke-linejoin="round" stroke-miterlimit="10"/><path d="m306.415 450.154s-2.901-3.165-7.648-3.428" fill="none" stroke="#fff" stroke-linecap="round" stroke-linejoin="round" stroke-miterlimit="10"/><path d="m300.744 453.187s-2.694-2.936-6.198-3.033" fill="none" stroke="#fff" stroke-linecap="round" stroke-linejoin="round" stroke-miterlimit="10"/><path d="m352.382 442.769-3.319 8.231s-6.692 3.637-8.011 4.956-1.319 7.703-1.319 7.703 10.593 2.846 23.253 1.439c6.301-.701 12.212-2.548 12.212-2.548l-1.863-16.615z" fill="#263238"/><path d="m365.887 455.297s-7.648-3.429-10.022-3.626c-2.374-.198-6.462 0-6.462 0" fill="none" stroke="#fff" stroke-linecap="round" stroke-linejoin="round" stroke-miterlimit="10"/><path d="m360.481 456.088s-7.121-2.791-9.758-2.648-4.352 0-4.352 0" fill="none" stroke="#fff" stroke-linecap="round" stroke-linejoin="round" stroke-miterlimit="10"/><path d="m365.887 450.813s-4.484-1.319-8.703-2.374c-4.22-1.055-5.802 0-5.802 0" fill="none" stroke="#fff" stroke-linecap="round" stroke-linejoin="round" stroke-miterlimit="10"/><use fill="#92e3a9" xlink:href="#o"/><path clip-path="url(#f)" d="m397.62 317.73s-32.61 2.91-41.53 14.54c-1.36 1.76-1.81 13.39-1.81 13.39l-37.45 4.65s3.76 70.15 6.93 74.06c3.16 3.91.39 10.22.39 10.22l2.03 9.56s-9.82-.69-19.48-.98c-3.45-3.7-2.42-6.99-2.42-6.99 9.13 1.94 14.35-1.69 14.35-1.69s-10.55-8.17-9.34-13.44c1.21-5.28-1.53-24-1.53-24-1.37 7.91-3.08 9.87-3.08 9.87l.69-17.87s-20.4-21.28-11.01-34.02c9.4-12.73 52.49-24.98 47.74-26.57s-5.01-6.71-5.01-6.71c7.38-1.71 17.93-.13 17.19-2.41-.56-1.7-6.64-9.42-9.68-13.22 5.28-1.22 8.63-1.84 8.63-1.84l57.32 3.64-25.34 2.2z" fill-opacity=".7" opacity=".3"/><path clip-path="url(#f)" d="m414.41 352.31c-3.69 6.33-20.31 5.35-20.31 5.35 1.24-2.32 5.65-5.68 6.6-9.04 1.51-5.34 4.43 6.13 4.43 6.13 10.38-4.31 7.11-43.55 6.83-46.74l4.88.31s1.27 37.66-2.43 43.99z" fill-opacity=".7" opacity=".3"/><use fill="none" stroke="#263238" stroke-linecap="round" stroke-linejoin="round" stroke-miterlimit="10" xlink:href="#o"/><path d="m354.283 345.655s-.264-12.469 2.901-14.842 18.198-2.769 22.154-1.978 13.055 9.89 13.055 9.89" fill="none" stroke="#263238" stroke-linecap="round" stroke-linejoin="round" stroke-miterlimit="10"/><path d="m386.908 319.341s-23.79 4.352-29.724 11.473" fill="none" stroke="#263238" stroke-linecap="round" stroke-linejoin="round" stroke-miterlimit="10"/><path d="m369.2 324.053s-29.51 1.221-40.543-4.713" fill="none" stroke="#263238" stroke-linecap="round" stroke-linejoin="round" stroke-miterlimit="10"/><path d="m301.456 360.879c4.799 3.561 15.376-10.571 15.376-10.571s-11.051 1.692-11.459 0c-.409-1.692 3.917-1.692 3.917-1.692" fill="none" stroke="#263238" stroke-linecap="round" stroke-linejoin="round" stroke-miterlimit="10"/><path d="m309.144 372.747s1.858 29.67-7.688 38.769" fill="none" stroke="#263238" stroke-linecap="round" stroke-linejoin="round" stroke-miterlimit="10"/><path d="m394.097 357.659s6.604-6.67 6.604-9.044 2.336 3.771 0 6.42" fill="none" stroke="#263238" stroke-linecap="round" stroke-linejoin="round" stroke-miterlimit="10"/><path d="m381.316 369.582s-14.085 32.835-24.132 36.396" fill="none" stroke="#263238" stroke-linecap="round" stroke-linejoin="round" stroke-miterlimit="10"/><path d="m375.198 437.211s-10.894 2.261-16.036-2.618" fill="none" stroke="#263238" stroke-linecap="round" stroke-linejoin="round" stroke-miterlimit="10"/><path d="m301.456 434.593s9.442 4.04 15.376 3.141" fill="none" stroke="#263238" stroke-linecap="round" stroke-linejoin="round" stroke-miterlimit="10"/><path d="m436.14 227.379c-4.045-8.713-30.063-13.529-42.69-15.332-12.627-1.804-26.094-1.225-31.505-1.486-5.411-.262-9.08 29.746-9.08 29.746s2 42.462 2.301 51.481c0 0 1.23 2.458-.574 4.262s-1.996 4.607-1.996 4.607l-3.829 3.404s15.928 6.764 24.253 14.749c9.614 9.221 20.431-21.752 44.611 15.041 0 0 3.622-6.588 3.047-8.091s1.643-13.278 1.135-14.606.251-39.878.251-39.878l2.589 1.725s5.719-7.132 19.265-1.524l1.428-6.901-2.051-1.872c-.001-.001-3.247-26.907-7.155-35.325z" fill="#263238"/><path d="m411.139 195.469s-7.48 4.482-4.456 20.177c0 0-11.287 7.224-21.652-1.194 0 0 3.122-12.226.76-14.831" fill="#fff" stroke="#263238" stroke-linecap="round" stroke-linejoin="round" stroke-miterlimit="10"/><path d="m394.853 163.444s-6.4-1.303-9.062 6.514c-2.662 7.816.745 14.543.745 14.543l12.426-10.569z" fill="#263238"/><path d="m408.682 200.021c8.818-9.481 15.544-25.688 3.407-32.93-23.41-13.969-32.649 10.461-29.79 33.84.879 7.187 10.714 4.51 17.937 2.297" fill="#fff" stroke="#263238" stroke-linecap="round" stroke-linejoin="round" stroke-miterlimit="10"/><path d="m392.991 177.616s3.908 1.278 4.81 3.457" fill="none" stroke="#263238" stroke-linecap="round" stroke-linejoin="round" stroke-miterlimit="10"/><path d="m387.287 176.271s-1.496-.902-2.993 0" fill="none" stroke="#263238" stroke-linecap="round" stroke-linejoin="round" stroke-miterlimit="10"/><path d="m392.633 183.083c-.106.708.174 1.337.626 1.404.452.068.903-.452 1.009-1.16s-.174-1.337-.626-1.404c-.452-.068-.904.451-1.009 1.16z" fill="#263238"/><path d="m384.133 180.51c-.106.708.174 1.337.626 1.404s.903-.452 1.009-1.16-.174-1.337-.626-1.404c-.451-.067-.903.452-1.009 1.16z" fill="#263238"/><path d="m405.576 188.397s-4.008 5.211-6.614 6.814c-2.605 1.603-5.512.802-5.512.802s-2.993-4.109-7.659-4.409c0 0-2.203-1.553-3.936-1.578l.574-6.022s-4.211 12.748-4.111 17.389 11.307 8.449 17.078 7.447 9.109-9.706 11.271-17.97c.171-.654-1.091-2.473-1.091-2.473z" fill="#263238"/><path d="m387.738 178.977c0 1.127-6.388 7.666-6.539 9.169-.15 1.503 5.487 1.879 5.487 1.879" fill="#fff" stroke="#263238" stroke-linecap="round" stroke-linejoin="round" stroke-miterlimit="10"/><path d="m382.327 194.41s4.389 2.395 8.418 2.093" fill="none" stroke="#fff" stroke-linecap="round" stroke-linejoin="round" stroke-miterlimit="10"/><path d="m405.676 171.361c1.533-1.129-2.004-3.608-4.109-3.608-2.104 0-9.72-.802-9.72-.802s-3.409-4.91.851-7.516 10.874-1.403 10.874-1.403-1.603.201-2.205 1.102c0 0 5.411.1 7.716 2.104s3.608 3.908 6.113 5.411 5.612 8.919 4.309 15.032-5.164 16.772-11.3 19.71c0 0-2.051-.324-.725-1.672 6.213-6.313.702-19.088-.813-8.851l-2.003-1.333s-.071-.539.521-3.345-6.724-9.518.491-14.829z" fill="#263238"/><path d="m408.382 187.796s4.008-4.292 6.213-2.647.401 6.956-.902 8.259-2.3 1.533-4.109 3.608-3.908 1.232-3.507-.486" fill="#fff" stroke="#263238" stroke-linecap="round" stroke-linejoin="round" stroke-miterlimit="10"/><path d="m445.159 290.264c-1.206 4.747-2.788 11.868-10.041 11.868s-28.436-21.363-28.436-21.363l8.948-7.163 10.376 3.47s7.793 1.582 10.826 4.22" fill="#fff" stroke="#263238" stroke-linecap="round" stroke-linejoin="round" stroke-miterlimit="10"/><path d="m406.683 218.53s-12.954 6.591-21.732 1.053" fill="none" stroke="#fff" stroke-linecap="round" stroke-linejoin="round" stroke-miterlimit="10"/><path d="m359.558 294.483s18.939 14.506 32.942 14.242" fill="none" stroke="#fff" stroke-linecap="round" stroke-linejoin="round" stroke-miterlimit="10"/><path d="m404.058 270.424s-14.171 24.323-36.061 18.784" fill="none" stroke="#fff" stroke-linecap="round" stroke-linejoin="round" stroke-miterlimit="10"/><path d="m425.921 225.78s-15.14 13.778-10.29 25.285" fill="none" stroke="#fff" stroke-linecap="round" stroke-linejoin="round" stroke-miterlimit="10"/><path d="m432.849 244.517-2.169-2.696s-18.277 2.123-26.455 13.036c0 0-15.058-7.107-28.558-3.647l-.399 4.847 29.599 17.704 11.585-4.811z" fill="#fff" stroke="#263238" stroke-linecap="round" stroke-linejoin="round" stroke-miterlimit="10"/><use fill="#92e3a9" xlink:href="#p"/><path clip-path="url(#g)" d="m410.8 272.63-3.06-16.02c1.78-1.45 14.34-11.43 28.08-13.7l-3.12 20.8s-17.23 7.57-20.83 13.65l-.85.12z" fill-opacity=".7" opacity=".3"/><path clip-path="url(#g)" d="m404.87 273.76-.09 3.64c-3.5-.99-10.54-2.86-16.3-3.57 1.16-13.31 13.36-15.43 13.36-15.43z" fill-opacity=".7" opacity=".3"/><use fill="none" stroke="#263238" stroke-linecap="round" stroke-linejoin="round" stroke-miterlimit="10" xlink:href="#p"/><path d="m417.05 275.099c0-2.099 1.103-8.191 1.84-8.75s.457-4.611 1.854-6.427-1.541-1.816-3.216-.978c-1.674.838-4.253 5.171-5.092 5.87-.838.699-3.569 1.396-4.826 1.256s-8.774-5.2-10.176-5.03c-.899.109-9.245-.838-9.245-.838s-1.956 1.816-.838 2.515 3.074 1.956 3.074 1.956-2.236 1.397-.559 3.074 2.934 4.846 2.934 4.846 11.754 9.465 17.922 9.855" fill="#fff" stroke="#263238" stroke-linecap="round" stroke-linejoin="round" stroke-miterlimit="10"/><path d="m390.425 264.672s3.286.405 4.737 1.328" fill="none" stroke="#263238" stroke-linecap="round" stroke-linejoin="round" stroke-miterlimit="10"/><path d="m396.613 267.978s-.527 2.124-.659 2.447 1.714 2.396 1.451 3.337c-.264.941 1.891 3.51 1.891 3.51" fill="none" stroke="#263238" stroke-linecap="round" stroke-linejoin="round" stroke-miterlimit="10"/><path d="m394.503 270.424s-4.212-2.119-4.636-2.678" fill="none" stroke="#263238" stroke-linecap="round" stroke-linejoin="round" stroke-miterlimit="10"/><path d="m353.89 347.57c.13-.93.26-1.58.39-1.91z" fill-opacity=".7" opacity=".3"/><path d="m393.81 358.87c-.03-.38.06-.78.29-1.21z" fill-opacity=".7" opacity=".3"/><path d="m359.558 216.065s-7.926 20.435-2.374 36.476" fill="none" stroke="#fff" stroke-linecap="round" stroke-linejoin="round" stroke-miterlimit="10"/><path d="m283.541 86.568 13.162 119.811-14.531 18.117-86.074 9.456-14.955-136.136z" fill="#fff" stroke="#263238" stroke-linecap="round" stroke-linejoin="round" stroke-miterlimit="10"/><path d="m181.475 92.158h103.01v11.673h-103.01z" fill="#92e3a9" stroke="#263238" stroke-linecap="round" stroke-linejoin="round" stroke-miterlimit="10" transform="matrix(.994 -.1092 .1092 .994 -9.3073 26.0259)"/><path d="m229.572 182.985-31.945 3.509c-.38.042-.654.383-.612.763s.383.654.763.612l31.945-3.509c.38-.042.654-.383.612-.763s-.384-.654-.763-.612z" fill="#263238"/><path d="m296.766 206.3-14.594 18.196-1.801-16.395z" fill="#bfbfbf" stroke="#263238" stroke-linecap="round" stroke-linejoin="round" stroke-miterlimit="10"/><use fill="#92e3a9" xlink:href="#q"/><path d="m198.819 192.643h28.032v20.549h-28.032z" style="opacity:.5;fill:#fff;stroke:#263238;stroke-linecap:round;stroke-linejoin:round;stroke-miterlimit:10;clip-path:url(#h)" transform="matrix(.994 -.1092 .1092 .994 -20.8842 24.4531)"/><use fill="none" stroke="#263238" stroke-linecap="round" stroke-linejoin="round" stroke-miterlimit="10" xlink:href="#q"/><path d="m199.329 208.328s2.594-4.758 5.165-5.045 6.923 5.12 11.077 5.045 6.91-4.928 11.647-2.842" fill="none" stroke="#263238" stroke-linecap="round" stroke-linejoin="round" stroke-miterlimit="10"/><path d="m218.659 195.689c.205.375.341.796.379 1.249.146 1.742-1.147 3.272-2.889 3.418-.053.004-.104-.004-.157-.003.582 1.066 1.751 1.748 3.039 1.64 1.742-.146 3.035-1.676 2.889-3.418-.141-1.688-1.586-2.943-3.261-2.886z" fill="none" stroke="#263238" stroke-linecap="round" stroke-linejoin="round" stroke-miterlimit="10"/><use fill="#92e3a9" xlink:href="#r"/><path d="m230.112 189.064h28.032v20.549h-28.032z" style="opacity:.5;fill:#fff;stroke:#263238;stroke-linecap:round;stroke-linejoin:round;stroke-miterlimit:10;clip-path:url(#i)" transform="matrix(.994 -.1092 .1092 .994 -20.3063 27.8486)"/><use fill="none" stroke="#263238" stroke-linecap="round" stroke-linejoin="round" stroke-miterlimit="10" xlink:href="#r"/><path d="m230.268 201.521 11.908-1.18 6.269 3.659 10.148-1.083" fill="none" stroke="#263238" stroke-linecap="round" stroke-linejoin="round" stroke-miterlimit="10"/><path d="m250.43 191.22 1.19 1.694 2.07-.02-1.243 1.656.659 1.962-1.959-.67-1.663 1.232.033-2.069-1.687-1.201 1.979-.609z" fill="none" stroke="#263238" stroke-linecap="round" stroke-linejoin="round" stroke-miterlimit="10"/><use fill="#92e3a9" xlink:href="#s"/><path d="m261.405 185.485h28.032v20.549h-28.032z" style="opacity:.5;fill:#fff;stroke:#263238;stroke-linecap:round;stroke-linejoin:round;stroke-miterlimit:10;clip-path:url(#j)" transform="matrix(.994 -.1092 .1092 .994 -19.729 31.2452)"/><use fill="none" stroke="#263238" stroke-linecap="round" stroke-linejoin="round" stroke-miterlimit="10" xlink:href="#s"/><path d="m261.816 200.265 27.733-3.155" fill="none" stroke="#263238" stroke-linecap="round" stroke-linejoin="round" stroke-miterlimit="10"/><path d="m284.606 190.366c.307 1.655-.786 3.245-2.441 3.552s-3.245-.786-3.552-2.441.786-3.245 2.441-3.552 3.245.786 3.552 2.441z" fill="none" stroke="#263238" stroke-linecap="round" stroke-linejoin="round" stroke-miterlimit="10"/><use fill="#92e3a9" xlink:href="#t"/><path clip-path="url(#k)" d="m194.145 161.423 21.755-21.098 15.901 10.678 9.278-8.988 44.811 20.683.865 7.874-90.513 9.943z" fill="#757575" opacity=".4"/><path clip-path="url(#k)" d="m266.971 126c.392 3.569-2.184 6.78-5.753 7.172s-6.78-2.183-7.172-5.753c-.392-3.569 2.183-6.78 5.753-7.173 3.568-.391 6.78 2.185 7.172 5.754z" fill="#fff" opacity=".4"/><path d="m194.145 161.423 21.755-21.098 15.901 10.678 9.278-8.988 44.811 20.683.865 7.874-90.513 9.943z" style="fill:none;stroke:#263238;stroke-linecap:round;stroke-linejoin:round;stroke-miterlimit:10;clip-path:url(#k)"/><path d="m266.971 126c.392 3.569-2.184 6.78-5.753 7.172s-6.78-2.183-7.172-5.753c-.392-3.569 2.183-6.78 5.753-7.173 3.568-.391 6.78 2.185 7.172 5.754z" style="fill:none;stroke:#263238;stroke-linecap:round;stroke-linejoin:round;stroke-miterlimit:10;clip-path:url(#k)"/><use fill="none" stroke="#263238" stroke-linecap="round" stroke-linejoin="round" stroke-miterlimit="10" xlink:href="#t"/><path d="m231.819 100.253 1.139 3.857s-2.902 1.952-1.139 3.363 1.763 1.411 1.763 1.411-1.187 4.128.791 5.215 8.505-.323 10.088-2.769-3.872-4.945-3.872-4.945 1.597-2.006.707-2.931c-.89-.926-4.055-.53-4.055-.53l-2.176-3.659z" fill-opacity=".7" opacity=".3"/><ellipse cx="232.959" cy="90.982" fill="#263238" rx="7.344" ry="6.883"/><path d="m239.729 96.77c0 2.756-3.031 4.99-6.771 4.99-3.739 0-6.77-2.234-6.77-4.99s3.031-4.99 6.77-4.99c3.74 0 6.771 2.234 6.771 4.99z" fill="#263238"/><path d="m237.005 95.518c1.375-1.001 1.918-2.238 1.918-2.238" fill="none" stroke="#fff" stroke-linecap="round" stroke-linejoin="round" stroke-miterlimit="10"/><path d="m227.154 93.577s1.833 3.193 5.805 3.193" fill="none" stroke="#fff" stroke-linecap="round" stroke-linejoin="round" stroke-miterlimit="10"/><path d="m300.231 218.53s4.22-7.179 2.11-11.53-5.787-14.375-5.574-18.964c0 0-4.061 0-2.865 6.374.593 3.161 0 6.983 0 6.983s-2.396 7.514-.407 12.165" fill="#fff" stroke="#263238" stroke-linecap="round" stroke-linejoin="round" stroke-miterlimit="10"/><path d="m330.854 246.204s2.08 3.653 1.552 7.609" fill="none" stroke="#263238" stroke-linecap="round" stroke-linejoin="round" stroke-miterlimit="10"/><path d="m418.264 255.481-2.372-2.111-2.03 3.212-.264-4.028c-.046-.72-.219-1.333-.542-1.978l3.921-2.097.342.318c.477.757.563 1.867.726 2.878z" fill="#fff" stroke="#263238" stroke-linecap="round" stroke-linejoin="round" stroke-miterlimit="10"/><path d="m411.159 251.935c1.61-.889 5.315-2.926 7.649-4.117.161-.079.052-.444-.118-.394-1.924.441-5.335 1.578-7.714 4.238-.092.112 0 .287.183.273z" fill="#263238"/></svg>